<?xml version="1.0" encoding="iso-8859-1"?>
<!-- Generator: Adobe Illustrator 19.0.0, SVG Export Plug-In . SVG Version: 6.00 Build 0)  -->
<svg version="1.1" id="Capa_1" xmlns="http://www.w3.org/2000/svg" xmlns:xlink="http://www.w3.org/1999/xlink" x="0px" y="0px"
	 viewBox="0 0 512 512" style="enable-background:new 0 0 512 512;" xml:space="preserve">
<path style="fill:#E6E3E2;" d="M416.313,7.515H215.922V256h288.564V95.687C504.485,46.991,465.009,7.515,416.313,7.515z"/>
<path style="fill:#9B8E8B;" d="M215.922,7.515c-48.696,0-88.172,39.476-88.172,88.172V256h176.344V95.687
	C304.094,46.991,264.618,7.515,215.922,7.515z"/>
<path style="fill:#8F807D;" d="M227.945,8.334c-3.932-0.536-7.945-0.82-12.023-0.82c-48.696,0-88.172,39.476-88.172,88.172V256
	h24.047V95.687C151.796,51.07,184.938,14.199,227.945,8.334z"/>
<path style="fill:#C1B8B7;" d="M215.922,432.344c48.696,0,88.172-39.476,88.172-88.172V256H127.75v88.172
	C127.75,392.868,167.226,432.344,215.922,432.344z"/>
<path style="fill:#B4AAA8;" d="M151.796,344.172V256H127.75v88.172c0,48.696,39.476,88.172,88.172,88.172
	c4.079,0,8.092-0.284,12.023-0.82C184.938,425.66,151.796,388.789,151.796,344.172z"/>
<rect x="336.157" y="256" style="fill:#FF7883;" width="48.094" height="248.485"/>
<rect x="384.25" y="256" style="fill:#FFA0A8;" width="48.094" height="248.485"/>
<path style="fill:#FF7883;" d="M448.376,47.593h-48.094c-8.854,0-16.031,7.177-16.031,16.031V199.89
	c0,8.854,7.177,16.031,16.031,16.031h16.031c8.854,0,16.031-7.177,16.031-16.031V79.656h16.031c8.854,0,16.031-7.177,16.031-16.031
	l0,0C464.407,54.77,457.23,47.593,448.376,47.593z"/>
<path style="fill:#DB5E6F;" d="M400.282,199.89V63.624c0-8.854,7.177-16.031,16.031-16.031h-16.031
	c-8.854,0-16.031,7.177-16.031,16.031V199.89c0,8.854,7.177,16.031,16.031,16.031h16.031
	C407.459,215.922,400.282,208.745,400.282,199.89z"/>
<rect x="95.687" y="111.718" style="fill:#FFC44F;" width="208.407" height="144.282"/>
<polygon style="fill:#FFB357;" points="304.094,232.44 199.89,120.221 95.687,232.44 95.687,256 304.094,256 "/>
<polygon style="fill:#FFD791;" points="304.094,256 95.687,256 199.89,143.781 "/>
<polygon style="fill:#FFC44F;" points="199.89,203.357 233.564,180.045 199.89,143.781 166.217,180.045 "/>
<polygon style="fill:#FFD791;" points="199.89,183.859 95.687,111.718 304.094,111.718 "/>
<path d="M416.313,0H215.922c-52.762,0-95.687,42.925-95.687,95.687v8.517H95.687c-4.083,0-7.515,3.43-7.515,7.515V256
	c0,4.082,3.43,7.515,7.515,7.515h24.548v80.658c0,52.762,42.925,95.687,95.687,95.687s95.687-42.925,95.687-95.687v-80.658h17.033
	v240.971c0,4.15,3.364,7.515,7.515,7.515s7.515-3.365,7.515-7.515V263.515h33.065v33.065c0,4.15,3.364,7.515,7.515,7.515
	s7.515-3.365,7.515-7.515v-33.065h33.065v240.971c0,4.15,3.364,7.515,7.515,7.515s7.515-3.365,7.515-7.515V263.515h64.626
	c4.151,0,7.515-3.365,7.515-7.515V95.687C512,42.925,469.075,0,416.313,0z M135.264,95.687c0-44.475,36.183-80.658,80.658-80.658
	s80.658,36.183,80.658,80.658v8.517H135.264V95.687z M233.951,169.418l62.628-43.357v110.802L233.951,169.418z M280.037,119.233
	l-80.147,55.486l-80.147-55.486H280.037z M103.202,126.06l62.627,43.358l-62.627,67.446V126.06z M178.313,178.061l17.3,11.976
	c2.545,1.762,6.01,1.762,8.555,0l17.299-11.976l65.395,70.425H112.92L178.313,178.061z M296.579,344.172
	c0,44.475-36.183,80.658-80.658,80.658s-80.658-36.183-80.658-80.658v-80.658h161.315V344.172z M496.971,248.485H311.609V95.687
	c0-33.845-17.664-63.641-44.256-80.658h148.961c44.475,0,80.658,36.183,80.658,80.658V248.485z"/>
<path d="M384.25,325.135c-4.151,0-7.515,3.365-7.515,7.515v171.836c0,4.15,3.364,7.515,7.515,7.515s7.515-3.365,7.515-7.515V332.65
	C391.765,328.5,388.402,325.135,384.25,325.135z"/>
<path d="M448.376,40.078h-48.094c-12.983,0-23.546,10.563-23.546,23.546V199.89c0,12.983,10.563,23.546,23.546,23.546h16.031
	c12.983,0,23.546-10.563,23.546-23.546V87.17h8.517c12.983,0,23.546-10.563,23.546-23.546S461.359,40.078,448.376,40.078z
	 M448.376,72.141h-16.031c-4.151,0-7.515,3.365-7.515,7.515V199.89c0,4.696-3.82,8.517-8.517,8.517h-16.031
	c-4.696,0-8.517-3.82-8.517-8.517V63.624c0-4.696,3.82-8.517,8.517-8.517h48.094c4.696,0,8.517,3.82,8.517,8.517
	C456.892,68.32,453.072,72.141,448.376,72.141z"/>
<path d="M409.299,176.344h-1.002c-4.151,0-7.515,3.365-7.515,7.515s3.364,7.515,7.515,7.515h1.002c4.151,0,7.515-3.365,7.515-7.515
	S413.451,176.344,409.299,176.344z"/>
<path d="M63.624,112.219H7.515c-4.15,0-7.515,3.365-7.515,7.515c0,4.15,3.365,7.515,7.515,7.515h56.11
	c4.15,0,7.515-3.365,7.515-7.515C71.139,115.584,67.774,112.219,63.624,112.219z"/>
<path d="M63.624,176.344H23.546c-4.15,0-7.515,3.365-7.515,7.515s3.365,7.515,7.515,7.515h40.078c4.15,0,7.515-3.365,7.515-7.515
	S67.774,176.344,63.624,176.344z"/>
<path d="M63.624,240.47H39.577c-4.15,0-7.515,3.365-7.515,7.515s3.365,7.515,7.515,7.515h24.047c4.15,0,7.515-3.365,7.515-7.515
	S67.774,240.47,63.624,240.47z"/>
<g>
</g>
<g>
</g>
<g>
</g>
<g>
</g>
<g>
</g>
<g>
</g>
<g>
</g>
<g>
</g>
<g>
</g>
<g>
</g>
<g>
</g>
<g>
</g>
<g>
</g>
<g>
</g>
<g>
</g>
</svg>
